{"title":"The Cowboys 1972 BluRay 1080p ac3 x264","uid":5892528,"size":8584456303,"categoryP":"video","categoryS":"hd___movies","magnet":"?xt=urn:btih:60fa4c63d543a68525d824a587dfd87611d22d4b&amp;dn=The+Cowboys+1972+BluRay+1080p+ac3+x264&amp;tr=udp%3A%2F%2Ftracker.openbittorrent.com%3A80&amp;tr=udp%3A%2F%2Fopen.demonii.com%3A1337&amp;tr=udp%3A%2F%2Ftracker.coppersurfer.tk%3A6969&amp;tr=udp%3A%2F%2Fexodus.desync.com%3A6969","seeders":0,"leechers":3,"uploader":"bobnjeff","files":1,"time":1287328005,"description":"The Cowboys 1972 BluRay 1080p ac3 x264\n\nEncoded by Tequila-Bob\nSource NTSC BluRay Disc\n &lt;a href=&quot;\nhttp://www.imdb.com/title/tt0068421/&quot; rel=&quot;nofollow&quot; target=&quot;_NEW&quot;&gt;\nhttp://www.imdb.com/title/tt0068421/&lt;/a&gt;\n\nRelease Date:13 January 1972 (USA) \n &lt;a href=&quot;\nhttp://photobucket.com/the_cowboys_tequila_bob&quot; rel=&quot;nofollow&quot; target=&quot;_NEW&quot;&gt;\nhttp://photobucket.com/the_cowboys_tequila_bob&lt;/a&gt;\n\n\nStoryline\nWhen his cattle drivers abandon him for the gold fields, rancher Wil Andersen is forced to take on a collection of young boys as his drivers in order to get his herd to market in time to avoid financial disaster. The boys learn to do a man's job under Andersen's tutelage, however, neither Andersen nor the boys know that a gang of cattle thieves is stalking them. \n\nIceland:12 / Australia:M / Canada:PG (video rating) / West Germany:16 (f) / Finland:K-16 / Norway:16 / Sweden:15 / UK:12 (video re-rating: this work has been approved under the different versions categories policy 2004) (2005) (uncut) / UK:A (original rating) (passed with cuts) / UK:PG (video rating) (1987) (cut) / USA:GP (original rating) / USA:PG \n\nCast\nCast overview, first billed only: \n  John Wayne  ...  Wil Andersen  \n  Roscoe Lee Browne  ...  Jebediah Nightlinger  \n  Bruce Dern  ...  Long Hair  \n  Colleen Dewhurst  ...  Kate  \n  Alfred Barker Jr.  ...  Fats - Cowboy  \n  Nicolas Beauvy  ...  Dan - Cowboy  \n  Steve Benedict  ...  Steve - Cowboy  \n  Robert Carradine  ...  Slim Honeycutt - Cowboy  \n  Norman Howell  ...  Weedy - Cowboy (as Norman Howell Jr.)  \n  Stephen R. Hudis  ...  Charlie Schwartz - Cowboy (as Stephen Hudis)  \n  Sean Kelly  ...  Stuttering Bob - Cowboy  \n  A Martinez  ...  Cimarron - Cowboy  \n  Clay O'Brien  ...  Hardy Fimps - Cowboy  \n  Sam O'Brien  ...  Jimmy Phillips - Cowboy  \n  Mike Pyeatt  ...  Homer Weems - Cowboy \n\nFormat : Matroska \nFile size : 7.99 GiB \nDuration : 2h 14mn \nOverall bit rate : 8 513 Kbps \nEncoded date : UTC 2010-10-15 20:56:12 \nWriting application : mkvmerge v4.3.0 \n\nFormat settings, ReFrames : 9 frames \nMuxing mode : Container profile=&lt;a class=&quot;__cf_email__&quot; href=&quot;/cdn-cgi/l/email-protection&quot; data-cfemail=&quot;c297aca9acadb5ac82f7ecf2&quot;&gt;[email&amp;#160;protected]&lt;/a&gt;&lt;script cf-hash='f9e31' type=&quot;text/javascript&quot;&gt;\n/* &lt;![CDATA[ */!function(){try{var t=&quot;currentScript&quot;in document?document.currentScript:function(){for(var t=document.getElementsByTagName(&quot;script&quot;),e=t.length;e--;)if(t[e].getAttribute(&quot;cf-hash&quot;))return t[e]}();if(t&amp;&amp;t.previousSibling){var e,r,n,i,c=t.previousSibling,a=c.getAttribute(&quot;data-cfemail&quot;);if(a){for(e=&quot;&quot;,r=parseInt(a.substr(0,2),16),n=2;a.length-n;n+=2)i=parseInt(a.substr(n,2),16)^r,e+=String.fromCharCode(i);e=document.createTextNode(e),c.parentNode.replaceChild(e,c)}}}catch(u){}}();/* ]]&gt; */&lt;/script&gt; \nCodec ID : V_MPEG4/ISO/AVC \nDuration : 2h 14mn \nBit rate : 7 825 Kbps \nWidth : 1 920 pixels \nHeight : 800 pixels \nDisplay aspect ratio : 2.40:1 \nFrame rate : 23.976 fps \nColor space : YUV \nChroma subsampling : 4:2:0 \nBit depth : 8 bits \nScan type : Progressive \nBits/(Pixel*Frame) : 0.212 \nStream size : 7.23 GiB (90%) \n\nCodec ID : A_AC3 \nDuration : 2h 14mn \nBit rate mode : Constant \nBit rate : 640 Kbps \nChannel(s) : 6 channels \nChannel positions : Front: L C R, Side: L R, LFE \nSampling rate : 48.0 KHz \nBit depth : 16 bits \nStream size : 616 MiB (8%) \nTitle : 3/2+1 \nLanguage : English \n\nText #1  \nLanguage : English \n\nText #2  \nLanguage : English \n\nText #3 \nLanguage : French \n\nText #4 \nLanguage : Spanish \n\nMenu \nChapters 36\n\n[img]http://torrent-stats.info/24a5/22d27f79.png[/img]\n &lt;a href=&quot;\nhttp://photobucket.com/the_cowboys_tequila_bob&quot; rel=&quot;nofollow&quot; target=&quot;_NEW&quot;&gt;\nhttp://photobucket.com/the_cowboys_tequila_bob&lt;/a&gt;\n\n\n","torrent":{"xt":"urn:btih:60fa4c63d543a68525d824a587dfd87611d22d4b","amp;dn":"The+Cowboys+1972+BluRay+1080p+ac3+x264","amp;tr":["udp%3A%2F%2Ftracker.openbittorrent.com%3A80","udp%3A%2F%2Fopen.demonii.com%3A1337","udp%3A%2F%2Ftracker.coppersurfer.tk%3A6969","udp%3A%2F%2Fexodus.desync.com%3A6969"],"infoHash":"60fa4c63d543a68525d824a587dfd87611d22d4b","infoHashBuffer":{"type":"Buffer","data":[96,250,76,99,213,67,166,133,37,216,36,165,135,223,216,118,17,210,45,75]},"announce":[],"urlList":[]}}